<svg width="200" height="56" viewBox="0 0 200 56" fill="none" xmlns="http://www.w3.org/2000/svg">
<rect x="0.7" y="0.7" width="198.6" height="54.6" rx="27.3" stroke="#458FF6" stroke-width="1.4"/>
<path d="M44.386 21.184H49.102C51.202 21.184 52.828 21.742 53.98 22.858C55.144 23.974 55.726 25.546 55.726 27.574C55.726 29.614 55.144 31.198 53.98 32.326C52.828 33.442 51.202 34 49.102 34H44.386V21.184ZM48.958 32.11C51.91 32.11 53.386 30.598 53.386 27.574C53.386 24.574 51.91 23.074 48.958 23.074H46.708V32.11H48.958ZM62.0569 34.144C61.1329 34.144 60.3169 33.952 59.6089 33.568C58.9129 33.184 58.3729 32.638 57.9889 31.93C57.6169 31.21 57.4309 30.37 57.4309 29.41C57.4309 28.45 57.6169 27.616 57.9889 26.908C58.3729 26.188 58.9129 25.636 59.6089 25.252C60.3169 24.868 61.1329 24.676 62.0569 24.676C62.9689 24.676 63.7729 24.868 64.4689 25.252C65.1649 25.636 65.6989 26.188 66.0709 26.908C66.4549 27.616 66.6469 28.45 66.6469 29.41C66.6469 30.37 66.4549 31.21 66.0709 31.93C65.6989 32.638 65.1649 33.184 64.4689 33.568C63.7729 33.952 62.9689 34.144 62.0569 34.144ZM62.0389 32.38C62.8069 32.38 63.3889 32.134 63.7849 31.642C64.1929 31.138 64.3969 30.394 64.3969 29.41C64.3969 28.438 64.1929 27.7 63.7849 27.196C63.3769 26.68 62.8009 26.422 62.0569 26.422C61.3009 26.422 60.7189 26.68 60.3109 27.196C59.9029 27.7 59.6989 28.438 59.6989 29.41C59.6989 30.394 59.8969 31.138 60.2929 31.642C60.7009 32.134 61.2829 32.38 62.0389 32.38ZM82.9011 24.91L79.3371 34H77.3751L75.1251 28.042L72.9291 34H70.9491L67.3851 24.91H69.6891L72.0291 31.318L74.3871 24.91H76.0071L78.3651 31.372L80.7051 24.91H82.9011ZM89.5217 24.676C91.6937 24.676 92.7797 25.924 92.7797 28.42V34H90.5297V28.528C90.5297 27.808 90.3917 27.286 90.1157 26.962C89.8397 26.626 89.4137 26.458 88.8377 26.458C88.1537 26.458 87.6017 26.68 87.1817 27.124C86.7617 27.556 86.5517 28.132 86.5517 28.852V34H84.3197V27.484C84.3197 26.524 84.2717 25.666 84.1757 24.91H86.2817L86.4437 26.404C86.7557 25.852 87.1757 25.426 87.7037 25.126C88.2437 24.826 88.8497 24.676 89.5217 24.676ZM95.1654 20.752H97.3974V34H95.1654V20.752ZM103.981 34.144C103.057 34.144 102.241 33.952 101.533 33.568C100.837 33.184 100.297 32.638 99.9128 31.93C99.5408 31.21 99.3548 30.37 99.3548 29.41C99.3548 28.45 99.5408 27.616 99.9128 26.908C100.297 26.188 100.837 25.636 101.533 25.252C102.241 24.868 103.057 24.676 103.981 24.676C104.893 24.676 105.697 24.868 106.393 25.252C107.089 25.636 107.623 26.188 107.995 26.908C108.379 27.616 108.571 28.45 108.571 29.41C108.571 30.37 108.379 31.21 107.995 31.93C107.623 32.638 107.089 33.184 106.393 33.568C105.697 33.952 104.893 34.144 103.981 34.144ZM103.963 32.38C104.731 32.38 105.313 32.134 105.709 31.642C106.117 31.138 106.321 30.394 106.321 29.41C106.321 28.438 106.117 27.7 105.709 27.196C105.301 26.68 104.725 26.422 103.981 26.422C103.225 26.422 102.643 26.68 102.235 27.196C101.827 27.7 101.623 28.438 101.623 29.41C101.623 30.394 101.821 31.138 102.217 31.642C102.625 32.134 103.207 32.38 103.963 32.38ZM119.205 24.91V34H116.991V32.542C116.715 33.046 116.319 33.442 115.803 33.73C115.287 34.006 114.699 34.144 114.039 34.144C113.247 34.144 112.545 33.952 111.933 33.568C111.321 33.184 110.847 32.638 110.511 31.93C110.175 31.222 110.007 30.4 110.007 29.464C110.007 28.528 110.175 27.7 110.511 26.98C110.859 26.248 111.339 25.684 111.951 25.288C112.563 24.88 113.259 24.676 114.039 24.676C114.699 24.676 115.287 24.82 115.803 25.108C116.319 25.384 116.715 25.774 116.991 26.278V24.91H119.205ZM114.651 32.38C115.395 32.38 115.971 32.122 116.379 31.606C116.787 31.09 116.991 30.364 116.991 29.428C116.991 28.468 116.787 27.73 116.379 27.214C115.971 26.698 115.389 26.44 114.633 26.44C113.889 26.44 113.307 26.71 112.887 27.25C112.479 27.778 112.275 28.516 112.275 29.464C112.275 30.4 112.479 31.12 112.887 31.624C113.307 32.128 113.895 32.38 114.651 32.38ZM130.35 20.752V34H128.136V32.542C127.86 33.046 127.464 33.442 126.948 33.73C126.432 34.006 125.844 34.144 125.184 34.144C124.404 34.144 123.708 33.946 123.096 33.55C122.484 33.154 122.004 32.596 121.656 31.876C121.32 31.144 121.152 30.31 121.152 29.374C121.152 28.438 121.32 27.616 121.656 26.908C121.992 26.2 122.466 25.654 123.078 25.27C123.69 24.874 124.392 24.676 125.184 24.676C125.832 24.676 126.408 24.814 126.912 25.09C127.428 25.354 127.824 25.732 128.1 26.224V20.752H130.35ZM125.778 32.38C126.522 32.38 127.098 32.122 127.506 31.606C127.926 31.09 128.136 30.358 128.136 29.41C128.136 28.462 127.932 27.73 127.524 27.214C127.116 26.698 126.54 26.44 125.796 26.44C125.04 26.44 124.452 26.698 124.032 27.214C123.624 27.718 123.42 28.438 123.42 29.374C123.42 30.322 123.624 31.06 124.032 31.588C124.452 32.116 125.034 32.38 125.778 32.38Z" fill="#458FF6"/>
<path d="M151.107 21.8523L151.107 33.1023L148.518 30.6307C148.161 30.2898 147.625 30.2898 147.268 30.6307C146.911 30.9716 146.911 31.483 147.268 31.8239L151.375 35.7443C151.732 36.0852 152.268 36.0852 152.625 35.7443L156.732 31.8239C157.089 31.483 157.089 30.9716 156.732 30.6307C156.375 30.2898 155.839 30.2898 155.482 30.6307L152.893 33.1023L152.893 21.8523C152.893 21.4261 152.536 21 152 21C151.464 21 151.107 21.4261 151.107 21.8523Z" fill="#458FF6"/>
</svg>
